<svg width="32" height="32" viewBox="0 0 32 32" fill="none" xmlns="http://www.w3.org/2000/svg">
  <!-- Background Circle for Better Contrast -->
  <circle cx="16" cy="16" r="16" fill="#10b981"/>
  
  <!-- Wallet Body -->
  <path
    d="M6 11C6 9.89543 6.89543 9 8 9H22C23.1046 9 24 9.89543 24 11V23C24 24.1046 23.1046 25 22 25H8C6.89543 25 6 24.1046 6 23V11Z"
    fill="rgba(255, 255, 255, 0.2)"
    stroke="white"
    strokeWidth="1.5"
  />
  
  <!-- Wallet Flap -->
  <path
    d="M6 11V14C6 15.1046 6.89543 16 8 16H19C20.1046 16 21 15.1046 21 14V12"
    fill="none"
    stroke="white"
    strokeWidth="1.5"
    strokeLinecap="round"
  />
  
  <!-- Coin -->
  <circle
    cx="20"
    cy="8"
    r="3.5"
    fill="#fbbf24"
    stroke="#f59e0b"
    strokeWidth="1"
  />
  
  <!-- Dollar Sign on Coin -->
  <path
    d="M19.5 6.5V9.5M20.5 6.5V9.5M18.8 7.2H21.2C21.42 7.2 21.6 7.38 21.6 7.6C21.6 7.82 21.42 8 21.2 8H18.8C18.58 8 18.4 8.18 18.4 8.4C18.4 8.62 18.58 8.8 18.8 8.8H21.2"
    stroke="white"
    strokeWidth="0.8"
    strokeLinecap="round"
    strokeLinejoin="round"
  />
  
  <!-- Wallet Details -->
  <rect
    x="9"
    y="19"
    width="10"
    height="1"
    rx="0.5"
    fill="rgba(255, 255, 255, 0.6)"
  />
  <rect
    x="9"
    y="21"
    width="7"
    height="1"
    rx="0.5"
    fill="rgba(255, 255, 255, 0.4)"
  />
</svg>